<?xml version="1.0" encoding="utf-8"?>
<!-- Generator: Adobe Illustrator 24.2.3, SVG Export Plug-In . SVG Version: 6.00 Build 0)  -->
<svg version="1.1" xmlns="http://www.w3.org/2000/svg" xmlns:xlink="http://www.w3.org/1999/xlink" x="0px" y="0px"
	 viewBox="0 0 1500 1500" style="enable-background:new 0 0 1500 1500;" xml:space="preserve">
<style type="text/css">
	.st2{fill:#282D7E;}
	.st3{fill:#FCA419;}
	.st4{fill:#F78F1E;}
	.st5{fill:#FEA41A;}
</style>
<g id="cutted1">
	<path class="st2" d="M1126.45,664.08c-4.41,37.91-14.25,74.17-28.72,107.97c-8.19,19.16-17.87,37.52-28.9,54.96c0,0,0,0,0,0.01
		c-4.91,7.77-10.09,15.36-15.53,22.75c-13.92,18.94-29.51,36.58-46.55,52.7c6.41,6.61,15.38,10.71,25.3,10.71
		c3.9,0,7.65-0.63,11.15-1.8c-5.55,12.82-11.77,25.28-18.62,37.34c-25.37,44.75-59.32,84-99.61,115.51
		c-28.39,22.22-59.92,40.6-93.83,54.35c-22.54,9.15-46.13,16.25-70.54,21.08c-19.63,16.57-32.25,41.17-32.79,68.73
		c-0.01,0.62-0.02,1.24-0.02,1.86c0,5.52,0.49,10.93,1.42,16.19c0,0.05,0.01,0.1,0.02,0.15c2.95,21.25,10.38,41.07,21.3,58.48
		c0,0.01,0,0.01,0.01,0.01c1.16,1.86,2.36,3.68,3.61,5.48c0,0.02,0.02,0.04,0.03,0.05c12.45,19.86,20.36,42.86,22.27,67.54
		c0.19,2.29,0.31,4.6,0.38,6.92c0.05,1.59,0.08,3.19,0.08,4.79c0,7.79-0.6,15.43-1.74,22.9c-0.73,3.46-1.67,6.85-2.78,10.15
		c-4.58,13.57-12.22,25.73-22.11,35.65c-3.09,3.1-6.4,5.98-9.89,8.6c1.88-4.42,3.42-9.02,4.59-13.76
		c1.79-7.15,2.73-14.63,2.73-22.33c0-21.51-7.35-41.31-19.69-57.01c-0.48-0.6-0.96-1.2-1.45-1.79
		c-18.19-22.4-34.87-46.06-49.9-70.84c-4.3-7.1-8.47-14.29-12.5-21.57c-4.24-7.65-8.32-15.39-12.24-23.23
		c-2.27-4.93-4.37-9.96-6.31-15.06c-9.24-24.41-14.65-50.7-15.48-78.14c-0.08-2.48-0.12-4.98-0.12-7.48
		c0-5.43,0.18-10.83,0.53-16.17c0.92-10.24,2.24-20.36,3.95-30.36c2.63-15.51,6.18-30.71,10.58-45.54
		c4.28-14.43,9.38-28.5,15.23-42.18v-0.01c2.36-5.52,4.85-10.97,7.45-16.36c41.34-85.46,112.86-153.59,200.72-190.55
		c0.02,0,0.03,0,0.03-0.01c0.27-0.13,0.56-0.24,0.83-0.35c0.01,0,0.02,0,0.02-0.01c4.84-1.72,9.6-3.6,14.28-5.64
		c0.04,0,0.07-0.02,0.09-0.03c64.71-28,114.76-83.48,135.44-151.73c0.05-0.17,0.11-0.34,0.15-0.52c0.08-0.24,0.15-0.49,0.22-0.73
		c0.28-0.92,0.55-1.85,0.81-2.77c5.1-17.41,9.46-35.13,13.06-53.13c2.67-13.32,4.91-26.78,6.73-40.38
		c2.49-18.7,4.16-37.64,4.99-56.82c0.39-9.15,0.59-18.36,0.59-27.61v-0.76c3.68,7.85,6.95,15.92,9.77,24.2
		c7.47,21.86,11.9,45.13,12.76,69.31c15.96-2.24,28.49-15.16,30.13-31.31c5.47,26.03,8.34,53.02,8.34,80.67
		c0,1.98-0.01,3.95-0.05,5.92c-0.35,23.97-2.86,47.42-7.35,70.15c1.08,0.1,2.17,0.15,3.27,0.15
		C1111.79,673.38,1120.17,669.85,1126.45,664.08z"/>
</g>
<g id="cutted2">
	<path class="st3" d="M821.4,1179.48c0,9.01-0.49,17.9-1.46,26.65c-0.57,6.91-1.61,13.68-3.1,20.29c-0.95,4.27-2.09,8.48-3.41,12.61
		c-7.44,23.33-20.45,44.17-37.47,60.95c-0.58,0.58-1.17,1.15-1.76,1.71c-0.02,0.03-0.04,0.04-0.06,0.06
		c-3.09,2.94-6.29,5.75-9.62,8.42c0,0,0,0-0.01,0v0.01c-13.96,12.88-26.41,27.39-37.02,43.22c-6.25,9.3-11.85,19.06-16.77,29.22
		c-9.65,19.91-16.64,41.34-20.52,63.83c-9.29-12.56-15.47-27.56-17.4-43.85c-0.15-1.18-0.27-2.36-0.36-3.56
		c-0.03-0.31-0.05-0.62-0.07-0.92c-0.02-0.27-0.04-0.55-0.05-0.83c-0.02-0.42-0.05-0.83-0.07-1.25c-0.01-0.05-0.01-0.1-0.01-0.15
		c-0.12-2.55-0.19-5.11-0.19-7.69c0-15.83,2.46-31.09,7.03-45.41c3.79-11.89,9.02-23.13,15.49-33.52
		c5.63-9.01,12.18-17.38,19.54-24.98c0.82-0.79,1.62-1.59,2.4-2.42c0.02-0.02,0.03-0.03,0.05-0.05
		c7.96-8.34,14.37-18.18,18.77-29.05c4.33-10.69,6.72-22.39,6.72-34.64c0-14.06-3.14-27.39-8.77-39.32
		c5.56-15.35,15.08-28.81,27.32-39.15c15.25-3.02,30.17-6.92,44.72-11.65c3.3-1.07,6.58-2.19,9.83-3.35
		C819.24,1142.27,821.4,1160.62,821.4,1179.48z"/>
</g>
<g id="cutted3">
	<path class="st4" d="M657.49,1008.49c-1.67,4.1-3.27,8.24-4.79,12.42c-2.78,7.55-5.32,15.21-7.62,22.97
		c-4.4,14.83-7.95,30.03-10.58,45.54c-0.67,3.93-1.28,7.88-1.83,11.85c-0.86,6.13-1.56,12.3-2.12,18.51
		c-0.11,1.75-0.21,3.51-0.28,5.28c-6.04,0.85-12.19,1.34-18.44,1.45c-0.87,0.01-1.74,0.02-2.61,0.02c-7.37,0-14.62-0.53-21.71-1.57
		c-0.03,0-0.07-0.01-0.1-0.01c-71.76-10.5-126.96-72.03-127.56-146.57c-0.01-0.41-0.01-0.83-0.01-1.24c0-2.89,0.08-5.76,0.24-8.61
		c1.3-29.4,7.85-57.43,18.73-83.18c0.4,5.22,1.08,10.36,2,15.42c4.34,23.62,14.24,45.3,28.28,63.63c0.01,0.01,0.01,0.02,0.02,0.02
		c1.14,1.73,2.44,3.34,3.86,4.83c0.01,0.02,0.03,0.04,0.05,0.05c6.42,6.71,15.46,10.89,25.48,10.89c2.92,0,5.76-0.36,8.47-1.03
		c-0.39-4.4-0.59-8.85-0.59-13.34c0-18.2,3.25-35.64,9.21-51.76c7.08-19.17,17.98-36.49,31.78-51.03c-0.72,5.95-1.09,12-1.09,18.14
		C586.28,935.01,614.77,982.21,657.49,1008.49z"/>
	<path class="st4" d="M657.49,1008.49c-1.67,4.1-3.27,8.24-4.79,12.42c-2.78,7.55-5.32,15.21-7.62,22.97
		c-4.4,14.83-7.95,30.03-10.58,45.54c-0.67,3.93-1.28,7.88-1.83,11.85c-0.86,6.13-1.56,12.3-2.12,18.51
		c-0.11,1.75-0.21,3.51-0.28,5.28c-6.04,0.85-12.19,1.34-18.44,1.45c-0.87,0.01-1.74,0.02-2.61,0.02c-7.37,0-14.62-0.53-21.71-1.57
		c-0.03,0-0.07-0.01-0.1-0.01c-71.76-10.5-126.96-72.03-127.56-146.57c-0.01-0.41-0.01-0.83-0.01-1.24c0-2.89,0.08-5.76,0.24-8.61
		c1.3-29.4,7.85-57.43,18.73-83.18c0.4,5.22,1.08,10.36,2,15.42c4.34,23.62,14.24,45.3,28.28,63.63c0.01,0.01,0.01,0.02,0.02,0.02
		c1.14,1.73,2.44,3.34,3.86,4.83c0.01,0.02,0.03,0.04,0.05,0.05c6.42,6.71,15.46,10.89,25.48,10.89c2.92,0,5.76-0.36,8.47-1.03
		c-0.39-4.4-0.59-8.85-0.59-13.34c0-18.2,3.25-35.64,9.21-51.76c7.08-19.17,17.98-36.49,31.78-51.03c-0.72,5.95-1.09,12-1.09,18.14
		C586.28,935.01,614.77,982.21,657.49,1008.49z"/>
</g>
<g id="cutted4">
	<path class="st5" d="M1028.72,404.77c0,57.54-12.43,112.17-34.74,161.37c0,0.01-0.01,0.02-0.01,0.03
		c-3.03,7.42-6.42,14.65-10.15,21.67c-3.75,7.1-7.86,13.99-12.3,20.65c-12.72,19.13-28.1,36.36-45.62,51.14
		c-18.08,15.26-38.43,27.91-60.48,37.37c-2.28,0.98-4.58,1.93-6.9,2.84c-38.65,16.6-72.09,42.98-97.22,76.04
		c-14.17,18.62-25.69,39.36-34,61.67c-0.76,1.91-1.46,3.85-2.09,5.82c-1.68,5.18-2.9,10.56-3.63,16.1c-0.3,2.2-0.51,4.43-0.64,6.69
		c0,0.01,0,0.01,0,0.02c0.01,9.87,4.06,18.79,10.6,25.18c-2.27,2.48-4.51,4.98-6.71,7.52c-4.32,4.96-8.51,10.03-12.58,15.21
		c-8.34,10.63-16.15,21.7-23.38,33.17c-7.71,12.25-14.77,24.96-21.11,38.07c-2.6,5.39-5.09,10.84-7.45,16.36v0.01
		c-0.96,2.25-1.91,4.51-2.82,6.79c-42.72-26.28-71.21-73.48-71.21-127.32c0-5.7,0.32-11.33,0.95-16.87
		c0.04-0.43,0.09-0.85,0.14-1.27c-0.2,0.21-0.4,0.42-0.59,0.63c-13.52,14.41-24.21,31.51-31.19,50.4
		c-5.22,14.12-8.36,29.25-9.06,45.02c-34.01-41.19-54.64-93.83-55.22-151.28c8.68,2.7,17.91,4.16,27.48,4.16
		c13.41,0,26.16-2.86,37.66-8.01c-2.01-5.81-3.78-11.72-5.33-17.72c-5.03-19.41-7.7-39.76-7.7-60.74c0-31.22,5.92-61.05,16.69-88.44
		c0.15-0.39,0.31-0.78,0.46-1.17c3.21-8.03,6.84-15.85,10.86-23.42c17.55-33.12,42.58-61.67,72.83-83.4
		c0.08-0.06,0.15-0.12,0.23-0.16c1.03-0.72,2.07-1.44,3.09-2.19c0.08-0.05,0.15-0.11,0.23-0.16c32.6-23.42,59.14-54.76,76.8-91.21
		c8.4-17.35,14.79-35.85,18.86-55.21c0.19-0.05,0.38-0.11,0.56-0.18c-0.16-0.1-0.31-0.21-0.46-0.32
		c2.18-10.46,3.68-21.17,4.46-32.08c0.41-5.76,0.62-11.57,0.62-17.43c0-26.82-4.37-52.62-12.44-76.72
		c32.79,7.42,58.96,32.29,68.22,64.34c2.37-8.15,3.63-16.77,3.63-25.69c0-11.41-2.07-22.33-5.86-32.42c0-0.01,0-0.02-0.01-0.03
		c-0.23-0.58-0.45-1.15-0.66-1.73c-2.75-7.39-4.57-15.22-5.33-23.36c-0.28-2.88-0.42-5.81-0.42-8.77c0-25.89,10.66-49.3,27.83-66.06
		c3.84,24.79,13.77,47.56,28.22,66.75c0.01,0.02,0.03,0.04,0.04,0.06c0.27,0.39,0.55,0.76,0.85,1.12c0.01,0.01,0.02,0.03,0.03,0.04
		c0.01,0.01,0.01,0.01,0.02,0.02l0.01,0.01c2.47,2.91,6.15,4.75,10.26,4.75c6.74,0,12.32-4.95,13.31-11.41c0-0.01,0-0.01,0-0.02
		c0.03-0.22,0.06-0.45,0.09-0.67c0.96-6.83,1.46-13.8,1.46-20.9c0-12.05-1.43-23.77-4.12-34.99c-0.04-0.18-0.09-0.37-0.13-0.55
		c-2.22-9.24-3.58-18.81-3.99-28.63c-0.09-2.11-0.13-4.23-0.13-6.36c0-5.12,0.26-10.18,0.76-15.16c0.71-7.05,1.91-13.95,3.56-20.67
		c0.81-3.25,1.71-6.47,2.73-9.63c0.74-2.8,1.69-5.51,2.84-8.11c6.53-14.89,19.21-26.44,34.85-31.44
		c-5.79,12.07-9.03,25.58-9.03,39.86c0,18.93,5.7,36.53,15.48,51.18c0,0.01,0,0.02,0.02,0.02c1.42,2.16,2.95,4.24,4.55,6.26h0.01
		c2.02,2.55,4.18,4.99,6.47,7.31c0.02,0.03,0.05,0.05,0.08,0.08c0.53,0.54,1.07,1.07,1.61,1.59l0.04,0.04
		c0.46,0.45,0.92,0.88,1.38,1.3c0.13,0.13,0.25,0.24,0.38,0.36c1,1,1.98,2.01,2.95,3.04c1,1.05,1.98,2.12,2.94,3.2
		c4.92,5.51,9.43,11.39,13.49,17.58c13.21,20.15,21.68,43.68,23.83,69.02c0.36,4.22,0.54,8.48,0.54,12.79
		c0,5.12-0.26,10.18-0.76,15.16c-0.23,2.29-0.51,4.57-0.85,6.82c-0.01,0.01-0.01,0.01,0,0.02c-0.34,1.7-0.62,3.41-0.85,5.14
		c-0.01,0.01-0.01,0.03-0.01,0.05c-0.06,0.41-0.11,0.82-0.16,1.23c-0.45,3.69-0.68,7.45-0.68,11.26c0,4.88,0.38,9.66,1.1,14.33
		c0.18,1.45,0.43,2.87,0.78,4.26c0,0,0,0.01,0,0.02c2.36,9.57,8.62,17.6,17,22.31c1.32,0.74,2.7,1.4,4.12,1.97
		c2.28,0.81,4.73,1.25,7.29,1.25c6.5,0,12.34-2.85,16.33-7.37c0.41,2.22,0.8,4.45,1.16,6.68c2.16,13.05,3.67,26.3,4.49,39.75v0.01
		C1028.47,388.47,1028.72,396.59,1028.72,404.77z"/>
</g>
</svg>
